<svg width="24" height="27" viewBox="0 0 24 27" fill="none" xmlns="http://www.w3.org/2000/svg">
<path d="M21.7 1.54591H18.7453V3.07958H21.7C21.9987 3.07958 22.2419 3.32269 22.2419 3.62148V5.89243C22.2419 6.38697 22.1025 6.87044 21.8389 7.29068C21.087 8.48902 19.5338 10.2654 17.1929 11.1888C16.5251 12.0628 15.6712 12.7865 14.6904 13.3021C16.6434 13.1656 18.538 12.5168 20.1175 11.3678C21.5982 10.2906 22.5773 8.99933 23.1379 8.1058C23.5551 7.44108 23.7756 6.67569 23.7756 5.89243V3.62148C23.7756 2.47698 22.8444 1.54591 21.7 1.54591Z" fill="#FFEB7E"/>
<path d="M19.7366 2.71356V1.91189C19.7366 1.70976 19.9004 1.54591 20.1026 1.54591H18.7451V3.07959H20.1026C19.9004 3.07953 19.7366 2.91569 19.7366 2.71356Z" fill="#FFE559"/>
<path d="M17.6572 11.8069C18.0184 11.4264 18.4354 11.1018 18.9045 10.8668C20.8463 9.89393 22.1582 8.36152 22.8301 7.29069C23.0938 6.87045 23.2331 6.38698 23.2331 5.89244V3.62143C23.2331 3.32217 22.9905 3.07954 22.6912 3.07954H21.6997C21.9985 3.07954 22.2416 3.32264 22.2416 3.62143V5.89239C22.2416 6.38693 22.1023 6.8704 21.8386 7.29064C21.0867 8.48898 19.5335 10.2653 17.1927 11.1887C16.5249 12.0628 15.6709 12.7865 14.6902 13.302C15.1257 13.2716 15.558 13.2142 15.9848 13.133C16.6036 12.7706 17.1667 12.3237 17.6572 11.8069Z" fill="#FFE559"/>
<path d="M6.58262 11.1888C4.2418 10.2653 2.68856 8.48902 1.93667 7.29068C1.673 6.87044 1.53367 6.38697 1.53367 5.89243V3.62148C1.53367 3.32269 1.77678 3.07958 2.07557 3.07958H5.03028V1.54591H2.07557C0.931131 1.54591 0 2.47698 0 3.62148V5.89243C0 6.67569 0.220483 7.44108 0.637611 8.1058C1.19823 8.99933 2.1774 10.2906 3.65808 11.3678C5.23753 12.5168 7.13217 13.1656 9.08513 13.3021C8.10438 12.7865 7.25045 12.0628 6.58262 11.1888Z" fill="#FFEB7E"/>
<path d="M4.64954 11.3678C3.16881 10.2906 2.18969 8.99933 1.62907 8.1058C1.21194 7.44108 0.991459 6.67569 0.991459 5.89243V3.62148C0.991459 2.47704 1.92259 1.54591 3.06703 1.54591H2.07557C0.931131 1.54591 0 2.47698 0 3.62148V5.89243C0 6.67569 0.220482 7.44108 0.637611 8.1058C1.19823 8.99933 2.1774 10.2906 3.65808 11.3678C5.23753 12.5168 7.13217 13.1656 9.08513 13.3021C8.98256 13.2481 8.88168 13.1914 8.78196 13.133C7.29464 12.8499 5.87682 12.2606 4.64954 11.3678Z" fill="#FFE559"/>
<path d="M13.0545 16.5074V13.8274C12.2845 13.999 11.4912 13.999 10.7212 13.8274V16.5074H13.0545Z" fill="#FBC700"/>
<path d="M11.9273 13.9555C11.5233 13.9585 11.1192 13.916 10.7212 13.8273V16.5074H11.9273V13.9555Z" fill="#EAB900"/>
<path d="M15.1323 18.8302V18.1C15.1323 17.1798 14.3795 16.4269 13.4592 16.4269H10.3162C9.39596 16.4269 8.64307 17.1798 8.64307 18.1V18.8302H15.1323Z" fill="#FFEB7E"/>
<path d="M12.3941 16.4269H10.3162C9.39596 16.4269 8.64307 17.1798 8.64307 18.1V18.8302H10.721V18.1C10.721 17.1798 11.4739 16.4269 12.3941 16.4269Z" fill="#FFE559"/>
<path d="M18.7896 1.3829H4.98591C4.96419 1.3829 4.94278 1.38159 4.92163 1.37932V6.59554C4.92163 9.8781 7.01002 12.6727 9.93061 13.7236C11.1972 14.1794 12.5783 14.1794 13.8449 13.7236C16.7655 12.6728 18.8538 9.87815 18.8538 6.59554V1.37932C18.8327 1.38159 18.8113 1.3829 18.7896 1.3829Z" fill="#FFD500"/>
<path d="M13.1752 13.7236C10.2547 12.6728 8.16627 9.87815 8.16627 6.59554V1.3829H4.98591C4.96419 1.3829 4.94278 1.38159 4.92163 1.37932V6.59554C4.92163 9.8781 7.01002 12.6727 9.93061 13.7236C11.0865 14.1396 12.3375 14.1746 13.5101 13.8314C13.3978 13.7985 13.2859 13.7635 13.1752 13.7236Z" fill="#FBC700"/>
<path d="M18.7894 0H4.98577C4.65723 0 4.39087 0.266361 4.39087 0.594896V0.951012C4.39087 1.27955 4.65723 1.54591 4.98577 1.54591H18.7895C19.118 1.54591 19.3844 1.27955 19.3844 0.951012V0.594896C19.3843 0.266361 19.1179 0 18.7894 0Z" fill="#FFEB7E"/>
<path d="M7.48743 0.951012V0.594896C7.48743 0.266361 7.75379 0 8.08233 0H4.98577C4.65723 0 4.39087 0.266361 4.39087 0.594896V0.951012C4.39087 1.27955 4.65723 1.54591 4.98577 1.54591H8.08233C7.75379 1.54591 7.48743 1.27955 7.48743 0.951012Z" fill="#FFE559"/>
<path d="M16.4194 24.7753V19.3419C16.4194 18.9708 16.1157 18.6672 15.7447 18.6672H8.0304C7.6593 18.6672 7.35571 18.9708 7.35571 19.3419V24.7752L16.4194 24.7753Z" fill="#DD8858"/>
<path d="M10.4751 18.6672H8.03045C7.65936 18.6672 7.35571 18.9708 7.35571 19.3419V24.7752H9.80037V19.3419C9.80043 18.9708 10.1041 18.6672 10.4751 18.6672Z" fill="#CB6C35"/>
<path d="M13.6097 21.3886H10.1657C9.94071 21.3886 9.7583 21.2062 9.7583 20.9812C9.7583 20.7562 9.94071 20.5738 10.1657 20.5738H13.6097C13.8347 20.5738 14.0171 20.7562 14.0171 20.9812C14.0171 21.2062 13.8347 21.3886 13.6097 21.3886Z" fill="#CB6C35"/>
<path d="M13.6097 22.9067H10.1657C9.94071 22.9067 9.7583 22.7242 9.7583 22.4992C9.7583 22.2742 9.94071 22.0918 10.1657 22.0918H13.6097C13.8347 22.0918 14.0171 22.2742 14.0171 22.4992C14.0171 22.7242 13.8347 22.9067 13.6097 22.9067Z" fill="#CB6C35"/>
<path d="M17.0605 24.6667H8.85025C8.55441 24.7885 8.34595 25.0793 8.34595 25.4191V26.2476C8.34595 26.5873 8.55441 26.8782 8.85025 27H17.0605C17.4875 27 17.8335 26.6538 17.8335 26.2269V25.4397C17.8335 25.0128 17.4874 24.6667 17.0605 24.6667Z" fill="#E39B74"/>
<path d="M8.3865 26.2269V25.4397C8.3865 25.0128 8.73265 24.6667 9.15959 24.6667H6.71498C6.28799 24.6667 5.94189 25.0128 5.94189 25.4397V26.2269C5.94189 26.6538 6.28804 27 6.71498 27H9.15964C8.73265 27 8.3865 26.6538 8.3865 26.2269Z" fill="#DD8858"/>
</svg>
